<?xml version="1.0" encoding="UTF-8"?>
<mxfile host="app.diagrams.net" modified="2024-12-23T10:00:00.000Z" agent="Mozilla/5.0" version="24.7.17" etag="UCdetail-04-fixed" type="device">
  <diagram name="UCdetail-04: Assessment and Testing Module" id="ucdetail-04">
    <mxGraphModel dx="1400" dy="900" grid="1" gridSize="10" guides="1" tooltips="1" connect="1" arrows="1" fold="1" page="1" pageScale="1" pageWidth="1200" pageHeight="800" math="0" shadow="0">
      <root>
        <mxCell id="0"/>
        <mxCell id="1" parent="0"/>
        
        <mxCell id="title" value="UCdetail-04: Assessment and Testing Module" style="text;html=1;align=center;verticalAlign=middle;whiteSpace=wrap;rounded=0;fontSize=18;fontStyle=1;fillColor=#722ed1;fontColor=#ffffff" vertex="1" parent="1">
          <mxGeometry x="200" y="20" width="800" height="40" as="geometry"/>
        </mxCell>

        <mxCell id="system-boundary" value="Assessment and Testing Module" style="rounded=1;whiteSpace=wrap;html=1;fontSize=14;fontStyle=1;fillColor=#f9f0ff;strokeColor=#722ed1;strokeWidth=2;verticalAlign=top" vertex="1" parent="1">
          <mxGeometry x="150" y="80" width="900" height="650" as="geometry"/>
        </mxCell>

        <mxCell id="student" value="Student" style="shape=umlActor;verticalLabelPosition=bottom;verticalAlign=top;html=1;outlineConnect=0;fontSize=12;fillColor=#d5e8d4;strokeColor=#82b366" vertex="1" parent="1">
          <mxGeometry x="50" y="300" width="40" height="80" as="geometry"/>
        </mxCell>

        <mxCell id="assessment-engine" value="Assessment Engine" style="shape=umlActor;verticalLabelPosition=bottom;verticalAlign=top;html=1;outlineConnect=0;fontSize=10;fillColor=#dae8fc;strokeColor=#6c8ebf" vertex="1" parent="1">
          <mxGeometry x="1100" y="200" width="40" height="80" as="geometry"/>
        </mxCell>

        <mxCell id="grading-system" value="Grading System" style="shape=umlActor;verticalLabelPosition=bottom;verticalAlign=top;html=1;outlineConnect=0;fontSize=10;fillColor=#fff2cc;strokeColor=#d6b656" vertex="1" parent="1">
          <mxGeometry x="1100" y="400" width="40" height="80" as="geometry"/>
        </mxCell>

        <mxCell id="take-quiz" value="Take Algorithm Quiz" style="ellipse;whiteSpace=wrap;html=1;fontSize=11;fillColor=#d5e8d4;strokeColor=#82b366;fontStyle=1" vertex="1" parent="1">
          <mxGeometry x="200" y="120" width="120" height="70" as="geometry"/>
        </mxCell>

        <mxCell id="solve-coding-problems" value="Solve Coding Problems" style="ellipse;whiteSpace=wrap;html=1;fontSize=11;fillColor=#d5e8d4;strokeColor=#82b366" vertex="1" parent="1">
          <mxGeometry x="360" y="120" width="120" height="70" as="geometry"/>
        </mxCell>

        <mxCell id="timed-assessment" value="Take Timed Assessment" style="ellipse;whiteSpace=wrap;html=1;fontSize=11;fillColor=#d5e8d4;strokeColor=#82b366" vertex="1" parent="1">
          <mxGeometry x="520" y="120" width="120" height="70" as="geometry"/>
        </mxCell>

        <mxCell id="view-results" value="View Assessment Results" style="ellipse;whiteSpace=wrap;html=1;fontSize=11;fillColor=#ffe6cc;strokeColor=#d79b00" vertex="1" parent="1">
          <mxGeometry x="680" y="120" width="120" height="70" as="geometry"/>
        </mxCell>

        <mxCell id="review-mistakes" value="Review Mistakes" style="ellipse;whiteSpace=wrap;html=1;fontSize=11;fillColor=#ffe6cc;strokeColor=#d79b00" vertex="1" parent="1">
          <mxGeometry x="840" y="120" width="120" height="70" as="geometry"/>
        </mxCell>

        <mxCell id="multiple-choice" value="Multiple Choice Questions" style="ellipse;whiteSpace=wrap;html=1;fontSize=11;fillColor=#f0f9ff;strokeColor=#1890ff" vertex="1" parent="1">
          <mxGeometry x="200" y="250" width="120" height="70" as="geometry"/>
        </mxCell>

        <mxCell id="code-completion" value="Code Completion Tasks" style="ellipse;whiteSpace=wrap;html=1;fontSize=11;fillColor=#f0f9ff;strokeColor=#1890ff" vertex="1" parent="1">
          <mxGeometry x="360" y="250" width="120" height="70" as="geometry"/>
        </mxCell>

        <mxCell id="algorithm-tracing" value="Algorithm Tracing" style="ellipse;whiteSpace=wrap;html=1;fontSize=11;fillColor=#f0f9ff;strokeColor=#1890ff" vertex="1" parent="1">
          <mxGeometry x="520" y="250" width="120" height="70" as="geometry"/>
        </mxCell>

        <mxCell id="performance-analysis" value="Performance Analysis Tasks" style="ellipse;whiteSpace=wrap;html=1;fontSize=11;fillColor=#e1d5e7;strokeColor=#9673a6" vertex="1" parent="1">
          <mxGeometry x="680" y="250" width="120" height="70" as="geometry"/>
        </mxCell>

        <mxCell id="track-scores" value="Track Test Scores" style="ellipse;whiteSpace=wrap;html=1;fontSize=12;fillColor=#fff7e6;strokeColor=#d48806;fontStyle=1" vertex="1" parent="1">
          <mxGeometry x="360" y="380" width="140" height="80" as="geometry"/>
        </mxCell>

        <mxCell id="generate-report" value="Generate Progress Report" style="ellipse;whiteSpace=wrap;html=1;fontSize=11;fillColor=#fff0f6;strokeColor=#d48fb1" vertex="1" parent="1">
          <mxGeometry x="540" y="380" width="120" height="70" as="geometry"/>
        </mxCell>

        <mxCell id="retake-assessment" value="Retake Assessment" style="ellipse;whiteSpace=wrap;html=1;fontSize=11;fillColor=#fff0f6;strokeColor=#d48fb1" vertex="1" parent="1">
          <mxGeometry x="700" y="380" width="120" height="70" as="geometry"/>
        </mxCell>

      </root>
    </mxGraphModel>
  </diagram>
</mxfile>
